<?xml version="1.0" encoding="UTF-8" standalone="no"?>
<!-- Created with Inkscape (http://www.inkscape.org/) -->

<svg
   width="26.83823mm"
   height="13.322621mm"
   viewBox="0 0 26.83823 13.322621"
   version="1.1"
   id="svg143"
   inkscape:version="1.1 (c4e8f9e, 2021-05-24)"
   sodipodi:docname="icon_about.svg"
   xmlns:inkscape="http://www.inkscape.org/namespaces/inkscape"
   xmlns:sodipodi="http://sodipodi.sourceforge.net/DTD/sodipodi-0.dtd"
   xmlns="http://www.w3.org/2000/svg"
   xmlns:svg="http://www.w3.org/2000/svg">
  <sodipodi:namedview
     id="namedview145"
     pagecolor="#0b56a6"
     bordercolor="#666666"
     borderopacity="1.0"
     inkscape:pageshadow="2"
     inkscape:pageopacity="1"
     inkscape:pagecheckerboard="false"
     inkscape:document-units="mm"
     showgrid="false"
     inkscape:zoom="11.366792"
     inkscape:cx="50.717914"
     inkscape:cy="25.205"
     inkscape:window-width="1920"
     inkscape:window-height="1027"
     inkscape:window-x="-1"
     inkscape:window-y="25"
     inkscape:window-maximized="0"
     inkscape:current-layer="layer1" />
  <defs
     id="defs140" />
  <g
     inkscape:label="Layer 1"
     inkscape:groupmode="layer"
     id="layer1"
     transform="translate(-91.497216,-142.0359)">
    <path
       d="m 91.603858,149.08789 c -0.105834,-0.0265 -0.185209,-0.82021 0.02646,-1.50813 0.370417,-1.19062 1.508125,-1.79916 2.143125,-2.14312 1.42875,-0.71438 2.936875,-0.84667 4.365625,-0.76729 0.661458,0.0529 2.645832,0.21166 7.037912,2.24896 2.51354,1.19062 3.28084,1.87854 5.74146,2.64583 1.93146,0.60854 3.38667,1.00542 4.7625,0.37042 a 5.5827083,5.5827083 0 0 0 2.32833,-2.01084 c 0.10584,-0.18521 0.26459,-0.47625 0.3175,-0.44979 0.0529,0.0265 -0.13229,1.16417 -0.66145,1.95792 -0.92605,1.34937 -2.46063,1.74625 -2.96334,1.87854 -0.50271,0.13229 -2.93687,0.635 -10.08062,-2.88396 -2.43417,-1.19062 -3.46604,-1.905 -5.635625,-2.38125 0,0 -3.069167,-0.71437 -5.000625,0.26458 a 5.1593749,5.1593749 0 0 0 -1.613959,1.32292 5.9795833,5.9795833 0 0 0 -0.47625,0.76729 c -0.185208,0.44979 -0.238125,0.68792 -0.291041,0.68792 z"
       fill="#ffffff"
       id="path19"
       style="stroke-width:0.264583" />
    <path
       d="m 93.535316,152.50101 c 0.02646,-0.0265 -0.05292,-0.13229 -0.132292,-0.39687 a 3.01625,3.01625 0 0 1 -0.07937,-0.55563 3.2808333,3.2808333 0 0 1 0.02646,-0.68791 l 0.132291,-0.50271 0.132292,-0.3175 a 2.38125,2.38125 0 0 1 0.185208,-0.37042 l 0.291042,-0.37041 a 2.9104166,2.9104166 0 0 1 0.926042,-0.68792 c 1.217083,-0.635 3.042708,-0.21167 3.466041,-0.0794 a 12.3825,12.3825 0 0 1 1.27,0.39688 l 1.34938,0.55562 1.37583,0.47625 1.64042,0.50271 c 1.93146,0.44979 3.86292,0.60854 3.88937,0.47625 0.0265,-0.13229 -0.37041,-0.18521 -1.08479,-0.44979 -0.29104,-0.10583 -0.84666,-0.3175 -3.25437,-1.50812 -2.40771,-1.19063 -2.19604,-1.13771 -2.83104,-1.4023 -1.296467,-0.52916 -2.063758,-0.84666 -3.175008,-0.92604 -1.11125,-0.0794 -1.931458,-0.13229 -3.122083,0.58209 a 4.2068749,4.2068749 0 0 0 -1.878542,2.2225 c -0.105833,0.29104 -0.502708,1.50812 0.105833,2.4077 0.264584,0.37042 0.714375,0.68792 0.767292,0.635 z"
       fill="#ffffff"
       id="path21"
       style="stroke-width:0.264583" />
    <path
       d="m 109.9924,148.37351 c -0.0265,0.1323 1.24354,0.87313 2.75167,1.00542 0.55562,0.0794 2.2225,0.23813 3.6777,-0.87312 a 4.1274999,4.1274999 0 0 0 1.66688,-2.46063 3.4395833,3.4395833 0 0 0 -0.52917,-2.67229 3.2808333,3.2808333 0 0 0 -2.03729,-1.27 3.2279166,3.2279166 0 0 0 -1.905,0.18521 2.5664583,2.5664583 0 0 0 -1.42875,1.34937 2.2225,2.2225 0 0 0 0.0265,1.74625 c 0.47625,0.9525 1.5875,1.21709 1.66687,1.13771 0.0794,-0.0794 -0.23812,-0.18521 -0.5027,-0.58208 a 1.984375,1.984375 0 0 1 -0.37042,-0.92604 1.5610416,1.5610416 0 0 1 0.66146,-1.32292 c 0.71437,-0.52917 1.79916,-0.26458 2.35479,0.39687 0.55562,0.66146 0.37042,1.53459 0.34396,1.7198 -0.18521,0.92604 -0.89959,1.42875 -1.24354,1.66687 -1.00542,0.74083 -2.19605,0.79375 -3.20146,0.84667 l -1.11125,0.0529 c -0.60854,-0.0265 -0.79375,-0.0529 -0.82021,0 z"
       fill="#ffffff"
       id="path23"
       style="stroke-width:0.264583" />
    <circle
       cx="104.91239"
       cy="148.71748"
       r="6.2441669"
       fill="#0b56a6"
       stroke="#ffffff"
       stroke-miterlimit="10"
       stroke-width="0.79375"
       id="circle25" />
    <text
       font-size="10.2103px"
       fill="#ffffff"
       font-family="BerlinSansFBDemi-Bold, 'Berlin Sans FB Demi'"
       font-weight="700"
       id="text27"
       x="103.51011"
       y="152.31581"
       style="stroke-width:0.264583">i</text>
  </g>
</svg>
