<?xml version="1.0" encoding="utf-8"?>
<!-- Generator: Adobe Illustrator 25.4.1, SVG Export Plug-In . SVG Version: 6.00 Build 0)  -->
<svg version="1.1" id="Layer_1" xmlns="http://www.w3.org/2000/svg" xmlns:xlink="http://www.w3.org/1999/xlink" x="0px" y="0px"
	 viewBox="0 0 1366 768" style="enable-background:new 0 0 1366 768;" xml:space="preserve">
<style type="text/css">
	.st0{fill:#333333;}
	.st1{font-family:'OpenSans';}
	.st2{font-size:14px;}
	.st3{letter-spacing:4;}
	.st4{letter-spacing:9;}
	.st5{fill:#0B56A6;}
	.st6{fill:none;stroke:#FFFFFF;stroke-width:2;stroke-miterlimit:10;}
	.st7{fill:#FFFFFF;}
	.st8{font-family:'OpenSans-Bold';}
	.st9{font-size:31px;}
	.st10{letter-spacing:5;}
	.st11{fill:#FFFFFF;stroke:#0B56A6;stroke-width:16;stroke-miterlimit:10;}
	.st12{clip-path:url(#SVGID_00000084504924749963432390000006645741709174951583_);}
	.st13{fill:none;stroke:#FFFFFF;stroke-width:3;stroke-miterlimit:10;}
</style>
<g id="Regulator_Icon">
	<text transform="matrix(1 0 0 1 768.3 428.7)" class="st0 st1 st2">•</text>
	<text transform="matrix(1 0 0 1 773.8999 428.7)" class="st0 st1 st2 st3"> </text>
	<text transform="matrix(1 0 0 1 782.7 428.7)" class="st0 st1 st2">View the latest academic publications on </text>
	<text transform="matrix(1 0 0 1 1070.7 428.7)" class="st0 st1 st2 st4">  </text>
	<text transform="matrix(1 0 0 1 768.3 445.5)" class="st0 st1 st2 st4"> </text>
	<text transform="matrix(1 0 0 1 782.7 445.5)" class="st0 st1 st2">environmental interactions  </text>
	<text transform="matrix(1 0 0 1 768.3 468.3)" class="st0 st1 st2">•</text>
	<text transform="matrix(1 0 0 1 773.8999 468.3)" class="st0 st1 st2 st3"> </text>
	<text transform="matrix(1 0 0 1 782.7 468.3)" class="st0 st1 st2">Generate and share reports with colleagues </text>
	<text transform="matrix(1 0 0 1 782.7 485.1)" class="st0 st1 st2">spatial, academic, and regulatory </text>
	<text transform="matrix(1 0 0 1 1013.1 485.1)" class="st0 st1 st2 st4">      </text>
	<text transform="matrix(1 0 0 1 768.3 501.9)" class="st0 st1 st2 st4"> </text>
	<text transform="matrix(1 0 0 1 782.7 501.9)" class="st0 st1 st2">information based on topics (stressors and </text>
	<text transform="matrix(1 0 0 1 782.7 518.7)" class="st0 st1 st2">receptors) and location of interest to inform </text>
	<text transform="matrix(1 0 0 1 782.7 535.5)" class="st0 st1 st2">decision making </text>
	<text transform="matrix(1 0 0 1 768.3 558.3)" class="st0 st1 st2">•</text>
	<text transform="matrix(1 0 0 1 773.8999 558.3)" class="st0 st1 st2 st3"> </text>
	<text transform="matrix(1 0 0 1 782.7 558.3)" class="st0 st1 st2">Review previously permitted project </text>
	<text transform="matrix(1 0 0 1 1041.9 558.3)" class="st0 st1 st2 st4">    </text>
	<text transform="matrix(1 0 0 1 768.3 575.1)" class="st0 st1 st2 st4"> </text>
	<text transform="matrix(1 0 0 1 782.7 575.1)" class="st0 st1 st2">documents to understand current precedent </text>
	<text transform="matrix(1 0 0 1 782.7 591.9)" class="st0 st1 st2">and how environmental interactions and </text>
	<text transform="matrix(1 0 0 1 1070.7 591.9)" class="st0 st1 st2 st4">  </text>
	<text transform="matrix(1 0 0 1 768.3 608.7)" class="st0 st1 st2 st4"> </text>
	<text transform="matrix(1 0 0 1 782.7 608.7)" class="st0 st1 st2">risks were considered and mitigated</text>
	<path class="st5" d="M852.9,173.9h153.9c3.53,0,6.4,2.87,6.4,6.4v194.17c0,3.53-2.87,6.4-6.4,6.4H852.9c-3.53,0-6.4-2.87-6.4-6.4
		V180.3C846.5,176.77,849.37,173.9,852.9,173.9z"/>
	<rect x="865.6" y="199.4" class="st6" width="29.2" height="29.24"/>
	<rect x="865.6" y="264.6" class="st6" width="29.2" height="29.24"/>
	<rect x="865.6" y="329.8" class="st6" width="29.2" height="29.24"/>
	<path class="st7" d="M864.1,209l5-6.3l4.5,5.1c1.9,1.9,3.6,3.7,5.4,5.3c2.45-4.65,5.51-8.96,9.1-12.8c3.34-3.66,7.1-6.91,11.2-9.7
		l5.9,5c-5.35,4.76-10.24,10.02-14.6,15.7c-3.66,4.7-6.94,9.68-9.8,14.9L864.1,209z"/>
	<path class="st7" d="M864.1,274.2l5-6.3c1.4,1.7,2.9,3.3,4.5,5.1s3.6,3.7,5.4,5.3c2.45-4.65,5.51-8.96,9.1-12.8
		c3.34-3.66,7.1-6.91,11.2-9.7l5.9,5c-5.35,4.76-10.24,10.02-14.6,15.7c-3.66,4.7-6.94,9.68-9.8,14.9L864.1,274.2z"/>
	
		<rect x="876.49" y="331.16" transform="matrix(0.7071 -0.7071 0.7071 0.7071 14.3228 723.3258)" class="st7" width="7.6" height="26.42"/>
	
		<rect x="867.11" y="340.6" transform="matrix(0.7071 -0.7071 0.7071 0.7071 14.3091 723.3552)" class="st7" width="26.42" height="7.6"/>
	<line class="st6" x1="909.5" y1="207.9" x2="986.3" y2="207.9"/>
	<line class="st6" x1="909.5" y1="220.2" x2="986.3" y2="220.2"/>
	<line class="st6" x1="909.5" y1="273.1" x2="986.3" y2="273.1"/>
	<line class="st6" x1="909.5" y1="285.4" x2="986.3" y2="285.4"/>
	<line class="st6" x1="909.5" y1="338.3" x2="986.3" y2="338.3"/>
	<line class="st6" x1="909.5" y1="350.6" x2="986.3" y2="350.6"/>
	<text transform="matrix(1 0 0 1 811.7 137.7)" class="st5 st8 st9 st10">REGULATOR</text>
</g>
<g id="Developer_Icon">
	<text transform="matrix(1 0 0 1 271.8 428.7)" class="st0 st1 st2">•</text>
	<text transform="matrix(1 0 0 1 277.4 428.7)" class="st0 st1 st2 st3"> </text>
	<text transform="matrix(1 0 0 1 286.2 428.7)" class="st0 st1 st2">Understand the state of the industry and </text>
	<text transform="matrix(1 0 0 1 574.2 428.7)" class="st0 st1 st2 st4">  </text>
	<text transform="matrix(1 0 0 1 271.8 445.5)" class="st0 st1 st2 st4"> </text>
	<text transform="matrix(1 0 0 1 286.2 445.5)" class="st0 st1 st2">where projects have been attempted or are </text>
	<text transform="matrix(1 0 0 1 286.2 462.3)" class="st0 st1 st2">permitted </text>
	<text transform="matrix(1 0 0 1 271.8 485.1)" class="st0 st1 st2">•</text>
	<text transform="matrix(1 0 0 1 277.4 485.1)" class="st0 st1 st2 st3"> </text>
	<text transform="matrix(1 0 0 1 286.2 485.1)" class="st0 st1 st2">Access and review previously permitted </text>
	<text transform="matrix(1 0 0 1 574.2 485.1)" class="st0 st1 st2 st4">  </text>
	<text transform="matrix(1 0 0 1 271.8 501.9)" class="st0 st1 st2 st4"> </text>
	<text transform="matrix(1 0 0 1 286.2 501.9)" class="st0 st1 st2">project documents to inform your own </text>
	<text transform="matrix(1 0 0 1 559.8 501.9)" class="st0 st1 st2 st4">   </text>
	<text transform="matrix(1 0 0 1 271.8 518.7)" class="st0 st1 st2 st4"> </text>
	<text transform="matrix(1 0 0 1 286.2 518.7)" class="st0 st1 st2">project development </text>
	<text transform="matrix(1 0 0 1 271.8 541.5)" class="st0 st1 st2">•</text>
	<text transform="matrix(1 0 0 1 277.4 541.5)" class="st0 st1 st2 st3"> </text>
	<text transform="matrix(1 0 0 1 286.2 541.5)" class="st0 st1 st2">Generate custom reports with compiled </text>
	<text transform="matrix(1 0 0 1 574.2 541.5)" class="st0 st1 st2 st4">  </text>
	<text transform="matrix(1 0 0 1 271.8 558.3)" class="st0 st1 st2 st4"> </text>
	<text transform="matrix(1 0 0 1 286.2 558.3)" class="st0 st1 st2">spatial, regulatory, and academic information </text>
	<text transform="matrix(1 0 0 1 286.2 575.1)" class="st0 st1 st2">to facilitate consultations with regulators and </text>
	<text transform="matrix(1 0 0 1 286.2 591.9)" class="st0 st1 st2">the development of permitting documents </text>
	<text transform="matrix(1 0 0 1 271.8 614.7)" class="st0 st1 st2">•</text>
	<text transform="matrix(1 0 0 1 277.4 614.7)" class="st0 st1 st2 st3"> </text>
	<text transform="matrix(1 0 0 1 286.2 614.7)" class="st0 st1 st2">Understand relevant regulations by </text>
	<text transform="matrix(1 0 0 1 545.4 614.7)" class="st0 st1 st2 st4">    </text>
	<text transform="matrix(1 0 0 1 271.8 631.5)" class="st0 st1 st2 st4"> </text>
	<text transform="matrix(1 0 0 1 286.2 631.5)" class="st0 st1 st2">answering simple questions in a decision tree </text>
	<text transform="matrix(1 0 0 1 286.2 648.3)" class="st0 st1 st2">to identify and access relevant regulatory </text>
	<text transform="matrix(1 0 0 1 574.2 648.3)" class="st0 st1 st2 st4">  </text>
	<text transform="matrix(1 0 0 1 271.8 665.1)" class="st0 st1 st2 st4"> </text>
	<text transform="matrix(1 0 0 1 286.2 665.1)" class="st0 st1 st2">information and resources.  </text>
	<g id="Developer_3">
		<path class="st5" d="M442.7,193.4H430l-9.7-20.8c-5.55,0.69-11.03,1.83-16.4,3.4c-5.38,1.59-10.6,3.66-15.6,6.2l4.8,22.4l-9.6,8
			l-20.8-11.2l-20.2,27.5l17.1,15.1l-3.5,12.1l-23.5,2.1c-0.65,5.01-1.02,10.05-1.1,15.1c-0.08,6.58,0.29,13.17,1.1,19.7l23,2
			l4.1,12.2l-17.3,14.9c2.51,5.57,5.59,10.87,9.2,15.8c3.33,4.51,7.05,8.73,11.1,12.6l19.9-11.9l10,7.5l-4.9,22.1
			c4.71,2.56,9.63,4.74,14.7,6.5c5.95,2,12.08,3.44,18.3,4.3l9-20.8h12.7l9,20.7c11.37-1.83,22.42-5.3,32.8-10.3l-4.8-22.4l10.2-7.2
			l19.7,11.5c4.24-4.54,8.18-9.35,11.8-14.4c3.2-4.32,6.14-8.83,8.8-13.5c-5.8-5.2-11.7-10.3-17.6-15.4l4.2-12.1l23.1-1.9
			c0.71-5.37,1.07-10.78,1.1-16.2c0.13-6.19-0.24-12.37-1.1-18.5l-22.9-1.9l-4-12.4l17.4-15.2c-2.24-4.34-4.78-8.52-7.6-12.5
			c-3.89-5.52-8.24-10.7-13-15.5l-19.6,11.7l-10.3-7.4l5.1-22.4c-10.44-5.3-21.64-8.95-33.2-10.8L442.7,193.4z"/>
		<circle class="st11" cx="436.1" cy="275.5" r="82.1"/>
		<g>
			<g>
				<defs>
					<circle id="SVGID_1_" cx="436.1" cy="275.5" r="82.1"/>
				</defs>
				<clipPath id="SVGID_00000015330945461191426100000000564502143212184997_">
					<use xlink:href="#SVGID_1_"  style="overflow:visible;"/>
				</clipPath>
				<g style="clip-path:url(#SVGID_00000015330945461191426100000000564502143212184997_);">
					<path class="st5" d="M287.5,295.9c-0.8-0.1-1.4-6.5,0.2-12c2.9-9.5,12.1-14.4,17.2-17c11.4-5.9,23.3-6.9,34.7-6.2
						c5.3,0.4,21.1,1.7,56.1,18c20.1,9.4,26.1,14.8,45.8,21c15.4,4.8,27,8,37.9,3c4.8-2.2,13.3-7.7,18.5-16.1
						c0.9-1.5,2.1-3.7,2.5-3.5s-0.8,9.3-5.2,15.5c-7.4,10.8-19.6,14-23.7,15s-23.4,5.1-80.1-22.9c-19.6-9.6-27.8-15.2-45-19.1
						c0,0-24.6-5.5-39.8,2.2c-1.1,0.6-8.7,4.4-12.9,10.4c-1.4,2.02-2.67,4.12-3.8,6.3C288.3,293.9,287.9,296,287.5,295.9z"/>
					<path class="st5" d="M302.9,323.2c0.3-0.2-0.4-1.1-1-3.2c-0.36-1.51-0.59-3.05-0.7-4.6c-0.12-1.81-0.02-3.62,0.3-5.4
						c0.23-1.37,0.6-2.71,1.1-4c0.24-0.86,0.54-1.69,0.9-2.5c0.42-0.99,0.96-1.93,1.6-2.8c0.68-1.06,1.45-2.07,2.3-3
						c2.03-2.39,4.55-4.3,7.4-5.6c9.6-5,24.1-1.6,27.6-0.7s7.6,2.4,10,3.3c4.6,1.7,5.6,2.3,10.9,4.3s7.8,2.8,10.8,3.8
						c5.1,1.7,10.1,3.2,13.2,4c15.4,3.7,30.8,5,31.1,3.8s-3.1-1.4-8.8-3.5c-2.2-0.9-6.6-2.6-25.9-12s-17.5-9.1-22.6-11.2
						c-10.3-4.2-16.5-6.8-25.4-7.4c-5.8-0.3-15.2-0.9-24.8,4.7c-2.4,1.4-11.3,6.8-15,17.7c-0.7,2.2-4,12,0.8,19.1
						C298.8,321.1,302.4,323.6,302.9,323.2z"/>
					<path class="st5" d="M434.2,290.2c-0.3,1,9.7,6.9,21.8,8.1c4.4,0.5,17.7,1.8,29.4-7c2.7-2,10.9-8.3,13.1-19.7
						c0.5-2.4,2.4-12.4-4.1-21.2s-13.2-9.5-16.3-10.1c-5.04-1.06-10.27-0.53-15,1.5c-2.5,1-8.7,3.8-11.5,10.7
						c-0.4,1.2-2.9,7.5,0.3,13.9s12.6,9.7,13.1,9s-1.7-1.4-3.8-4.6c-1.1-1.7-2.8-4.2-3-7.4c-0.17-4.16,1.74-8.14,5.1-10.6
						c5.8-4,14.5-1.9,18.9,3.3s3,12.2,2.7,13.6c-1.5,7.4-7.2,11.5-9.8,13.4c-8.2,5.8-17.7,6.4-25.7,6.8c-5.6,0.3-8.7,0.3-8.7,0.3
						C435.9,290.1,434.3,289.8,434.2,290.2z"/>
				</g>
			</g>
		</g>
		<circle class="st13" cx="436.1" cy="275.5" r="81.4"/>
	</g>
	<text transform="matrix(1 0 0 1 322.2 137.7)" class="st5 st8 st9 st10">DEVELOPER</text>
</g>
</svg>
