<?xml version="1.0" encoding="utf-8"?>
<!-- Generator: Adobe Illustrator 25.4.1, SVG Export Plug-In . SVG Version: 6.00 Build 0)  -->
<svg version="1.1" id="Layer_1" xmlns="http://www.w3.org/2000/svg" xmlns:xlink="http://www.w3.org/1999/xlink" x="0px" y="0px"
	 viewBox="0 0 166.6 206.97" style="enable-background:new 0 0 166.6 206.97;" xml:space="preserve">
<style type="text/css">
	.st0{fill:#0B56A6;}
	.st1{fill:none;stroke:#FFFFFF;stroke-width:2;stroke-miterlimit:10;}
	.st2{fill:#FFFFFF;}
	.st3{fill:#FFFFFF;stroke:#0B56A6;stroke-width:16;stroke-miterlimit:10;}
	.st4{clip-path:url(#SVGID_00000181087530332457650520000000934415830361140629_);}
	.st5{fill:none;stroke:#FFFFFF;stroke-width:3;stroke-miterlimit:10;}
</style>
<g id="Regulator_Icon">
	<path class="st0" d="M6.4,0h153.9c3.53,0,6.4,2.87,6.4,6.4v194.17c0,3.53-2.87,6.4-6.4,6.4H6.4c-3.53,0-6.4-2.87-6.4-6.4V6.4
		C0,2.87,2.87,0,6.4,0z"/>
	<rect x="19.1" y="25.5" class="st1" width="29.2" height="29.24"/>
	<rect x="19.1" y="90.7" class="st1" width="29.2" height="29.24"/>
	<rect x="19.1" y="155.9" class="st1" width="29.2" height="29.24"/>
	<path class="st2" d="M17.6,35.1l5-6.3l4.5,5.1c1.9,1.9,3.6,3.7,5.4,5.3c2.45-4.65,5.51-8.96,9.1-12.8c3.34-3.66,7.1-6.91,11.2-9.7
		l5.9,5c-5.35,4.76-10.24,10.02-14.6,15.7c-3.66,4.7-6.94,9.68-9.8,14.9L17.6,35.1z"/>
	<path class="st2" d="M17.6,100.3l5-6.3c1.4,1.7,2.9,3.3,4.5,5.1s3.6,3.7,5.4,5.3c2.45-4.65,5.51-8.96,9.1-12.8
		c3.34-3.66,7.1-6.91,11.2-9.7l5.9,5c-5.35,4.76-10.24,10.02-14.6,15.7c-3.66,4.7-6.94,9.68-9.8,14.9L17.6,100.3z"/>
	
		<rect x="29.99" y="157.26" transform="matrix(0.7071 -0.7071 0.7071 0.7071 -110.6454 73.8258)" class="st2" width="7.6" height="26.42"/>
	
		<rect x="20.61" y="166.7" transform="matrix(0.7071 -0.7071 0.7071 0.7071 -110.6591 73.8552)" class="st2" width="26.42" height="7.6"/>
	<line class="st1" x1="63" y1="34" x2="139.8" y2="34"/>
	<line class="st1" x1="63" y1="46.3" x2="139.8" y2="46.3"/>
	<line class="st1" x1="63" y1="99.2" x2="139.8" y2="99.2"/>
	<line class="st1" x1="63" y1="111.5" x2="139.8" y2="111.5"/>
	<line class="st1" x1="63" y1="164.4" x2="139.8" y2="164.4"/>
	<line class="st1" x1="63" y1="176.7" x2="139.8" y2="176.7"/>
</g>
</svg>
