<?xml version="1.0" encoding="utf-8"?>
<!-- Generator: Adobe Illustrator 25.4.1, SVG Export Plug-In . SVG Version: 6.00 Build 0)  -->
<svg version="1.1" id="Layer_1" xmlns="http://www.w3.org/2000/svg" xmlns:xlink="http://www.w3.org/1999/xlink" x="0px" y="0px"
	 viewBox="0 0 44 83" style="enable-background:new 0 0 44 83;" xml:space="preserve">
<style type="text/css">
	.st0{fill:none;stroke:#FFFFFF;stroke-width:2;stroke-miterlimit:10;}
	.st1{fill:#FFFFFF;}
</style>
<rect x="4" y="6.38" class="st0" width="31" height="30.64"/>
<path class="st1" d="M6.11,17.68l4.7-5.8c1.2,1.5,2.6,3.1,4.1,4.7s3.3,3.4,4.9,4.9c2.32-4.25,5.14-8.21,8.4-11.8
	c3.08-3.42,6.57-6.44,10.4-9l5.5,4.6c-4.97,4.41-9.52,9.26-13.6,14.5c-3.3,4.36-6.31,8.94-9,13.7L6.11,17.68z"/>
<rect x="4" y="50.78" class="st0" width="31" height="30.64"/>
<rect x="15.18" y="51.81" transform="matrix(0.7071 -0.7071 0.7071 0.7071 -41.0802 32.9868)" class="st1" width="8.2" height="28.55"/>
<rect x="5.03" y="62.06" transform="matrix(0.7071 -0.7071 0.7071 0.7071 -41.1241 33.03)" class="st1" width="28.55" height="8.2"/>
</svg>
