<?xml version="1.0" encoding="utf-8"?>
<!-- Generator: Adobe Illustrator 25.4.1, SVG Export Plug-In . SVG Version: 6.00 Build 0)  -->
<svg version="1.1" id="Layer_1" xmlns="http://www.w3.org/2000/svg" xmlns:xlink="http://www.w3.org/1999/xlink" x="0px" y="0px"
	 viewBox="0 0 89.76 85.2" style="enable-background:new 0 0 89.76 85.2;" xml:space="preserve">
<style type="text/css">
	.st0{fill:none;stroke:#FFFFFF;stroke-width:4;stroke-miterlimit:10;}
	.st1{fill:#FFFFFF;}
	.st2{fill:#0B56A6;stroke:#0B56A6;stroke-width:2;stroke-miterlimit:10;}
	.st3{fill:#0B56A6;stroke:#FFFFFF;stroke-miterlimit:10;}
	.st4{fill:none;stroke:#FFFFFF;stroke-miterlimit:10;}
	.st5{fill:none;stroke:#000000;stroke-width:0.3;}
</style>
<g id="Banner">
	<g>
		<g>
			<g id="Report_Tool_00000167364650336665431720000014507964729461984659_">
				<path class="st1" d="M2.26,21.2c-5.9-9,0.4-21.2,11.2-21.2h1c7.22,0.39,12.77,6.55,12.38,13.78c-0.12,2.29-0.84,4.5-2.08,6.42
					l-11.4,17.9L2.26,21.2z"/>
				<circle class="st2" cx="13.46" cy="12.8" r="7.3"/>
				<path class="st3" d="M30.36,26.7h22.1c1.77,0,3.2,1.43,3.2,3.2v25.93c0,1.77-1.43,3.2-3.2,3.2h-22.1c-1.77,0-3.2-1.43-3.2-3.2
					V29.9C27.16,28.13,28.6,26.7,30.36,26.7z"/>
				<line class="st4" x1="30.46" y1="31.2" x2="52.36" y2="31.2"/>
				<line class="st4" x1="30.46" y1="34.5" x2="52.36" y2="34.5"/>
				<line class="st4" x1="30.46" y1="37.7" x2="48.66" y2="37.7"/>
				<line class="st4" x1="30.46" y1="41" x2="48.66" y2="41"/>
				<line class="st4" x1="30.36" y1="44.3" x2="52.56" y2="44.3"/>
				<line class="st4" x1="30.36" y1="47.5" x2="52.56" y2="47.5"/>
				<line class="st4" x1="30.36" y1="50.8" x2="52.56" y2="50.8"/>
				<line class="st4" x1="30.36" y1="54.1" x2="52.56" y2="54.1"/>
				<path class="st1" d="M74.96,57.7h-1.8l-1.5-3.1c-0.81,0.09-1.62,0.26-2.4,0.5l-2.3,0.9l0.7,3.3l-1.4,1.2l-3.1-1.6l-3,4l2.5,2.3
					l-0.5,1.8l-3.5,0.3c-0.09,0.73-0.12,1.47-0.1,2.2c-0.07,0.97-0.04,1.94,0.1,2.9l3.4,0.3l0.6,1.8l-2.5,2.2
					c0.36,0.84,0.79,1.64,1.3,2.4c0.52,0.65,1.09,1.25,1.7,1.8l2.9-1.7l1.5,1.1l-0.7,3.3l2.2,0.9c0.87,0.35,1.77,0.58,2.7,0.7
					l1.3-3.1h1.9l1.3,3.1l2.5-0.6c0.83-0.25,1.63-0.59,2.4-1l-0.7-3.3l1.5-1.1l2.9,1.7l1.8-2.1l1.3-2l-2.6-2.3l0.6-1.8l3.4-0.2
					c0.12-0.83,0.19-1.66,0.2-2.5c-0.01-0.9-0.08-1.81-0.2-2.7l-3.4-0.3l-0.6-1.8l2.6-2.3l-1.1-1.8l-2-2.3l-2.9,1.7l-1.5-1.1
					l0.8-3.3l-2.4-1l-2.6-0.6L74.96,57.7z"/>
				<circle class="st3" cx="74.06" cy="69.8" r="12.2"/>
			</g>
		</g>
	</g>
</g>
</svg>
