<?xml version="1.0" encoding="utf-8"?>
<!-- Generator: Adobe Illustrator 25.4.1, SVG Export Plug-In . SVG Version: 6.00 Build 0)  -->
<svg version="1.1" id="Layer_1" xmlns="http://www.w3.org/2000/svg" xmlns:xlink="http://www.w3.org/1999/xlink" x="0px" y="0px"
	 viewBox="0 0 805.1 223.28" style="enable-background:new 0 0 805.1 223.28;" xml:space="preserve">
<style type="text/css">
	.st0{fill:#0B56A6;}
	.st1{fill:none;stroke:#0B56A6;stroke-width:2;stroke-miterlimit:10;}
	.st2{clip-path:url(#SVGID_00000085943513754986816480000010813630739094627254_);}
	.st3{fill:#CFE2F3;}
	.st4{fill:#F4CCCC;}
	.st5{fill:#D9EAD3;}
	.st6{fill:#FFFFFF;stroke:#0B56A6;stroke-width:2;stroke-miterlimit:10;}
	.st7{fill:#0B56A6;stroke:#0E57A5;stroke-miterlimit:10;}
	.st8{fill:#CFE2F3;stroke:#0B56A6;stroke-width:0.5;stroke-miterlimit:10;}
	.st9{fill:#FFFFFF;stroke:#0B56A6;stroke-miterlimit:10;}
	.st10{fill:none;stroke:#FFFFFF;stroke-miterlimit:10;}
	.st11{clip-path:url(#SVGID_00000118379828361455655660000015581360671771054751_);}
	.st12{fill:none;stroke:#0F58A5;stroke-width:2;stroke-miterlimit:10;}
	.st13{clip-path:url(#SVGID_00000030444543450180517280000005462737437248156547_);}
	.st14{clip-path:url(#SVGID_00000150817191214897735170000011662602215241952154_);}
	.st15{fill:none;stroke:#0F59A5;stroke-width:2;stroke-miterlimit:10;}
	.st16{fill:none;stroke:#0B56A6;stroke-width:3;stroke-miterlimit:10;}
	.st17{fill:#FFFFFF;stroke:#0B56A6;stroke-width:7;stroke-miterlimit:10;}
	.st18{clip-path:url(#SVGID_00000029016384661052205440000008655064649635573135_);}
	.st19{fill:#FFFFFF;stroke:#0B56A6;stroke-width:3;stroke-miterlimit:10;}
	.st20{font-family:'Arial-BoldMT';}
	.st21{font-size:18px;}
</style>
<g id="Step_1">
	<polygon class="st0" points="43.7,140.3 129.7,106.8 201.9,133.5 114.8,177.9 	"/>
	<polygon class="st1" points="2.4,119 128.7,79.1 241.5,112.8 115.8,178.6 44.6,141.2 	"/>
	<polyline class="st1" points="44.6,141.2 81.2,125.9 40.5,107.1 	"/>
	<polyline class="st1" points="81.2,125.9 130.7,107.3 201.9,133.5 	"/>
	<line class="st1" x1="172.7" y1="122.5" x2="211.9" y2="103.9"/>
	<line class="st1" x1="129.3" y1="107.4" x2="170.9" y2="91.6"/>
	<g>
		<defs>
			<path id="SVGID_1_" d="M102.5,115.4c-10.4-15.8,0.7-37,19.5-37h1.8c17.4,0.9,27.3,20.4,17.9,35.2l-19.8,31.2L102.5,115.4z"/>
		</defs>
		<clipPath id="SVGID_00000023251802904036884370000015571659092845683105_">
			<use xlink:href="#SVGID_1_"  style="overflow:visible;"/>
		</clipPath>
		<g style="clip-path:url(#SVGID_00000023251802904036884370000015571659092845683105_);">
			<rect x="85.7" y="77.7" class="st3" width="73.4" height="22.46"/>
			<rect x="85.7" y="100.1" class="st4" width="73.4" height="22.46"/>
			<rect x="85.7" y="122.4" class="st5" width="73.4" height="22.46"/>
		</g>
	</g>
	<path class="st1" d="M102.5,115.4c-10.4-15.8,0.7-37,19.5-37h1.8c17.4,0.9,27.3,20.4,17.9,35.2l-19.8,31.2L102.5,115.4z"/>
	<circle class="st6" cx="121.9" cy="100.5" r="12.7"/>
	<path class="st7" d="M10.9,0.6h76.2c1.88,0,3.4,1.52,3.4,3.4v99.87c0,1.88-1.52,3.4-3.4,3.4H10.9c-1.88,0-3.4-1.52-3.4-3.4V4
		C7.5,2.12,9.02,0.6,10.9,0.6z"/>
	<path class="st8" d="M12,25.1h74.2c1.16,0,2.1,0.94,2.1,2.1v4.62c0,1.16-0.94,2.1-2.1,2.1H12c-1.16,0-2.1-0.94-2.1-2.1V27.2
		C9.9,26.04,10.84,25.1,12,25.1z"/>
	<path class="st4" d="M12,35.1h74.2c1.16,0,2.1,0.94,2.1,2.1v4.62c0,1.16-0.94,2.1-2.1,2.1H12c-1.16,0-2.1-0.94-2.1-2.1V37.2
		C9.9,36.04,10.84,35.1,12,35.1z"/>
	<path class="st5" d="M12,45.1h74.2c1.16,0,2.1,0.94,2.1,2.1v4.62c0,1.16-0.94,2.1-2.1,2.1H12c-1.16,0-2.1-0.94-2.1-2.1V47.2
		C9.9,46.04,10.84,45.1,12,45.1z"/>
	<path class="st3" d="M12,55.1h74.2c1.16,0,2.1,0.94,2.1,2.1v4.62c0,1.16-0.94,2.1-2.1,2.1H12c-1.16,0-2.1-0.94-2.1-2.1V57.2
		C9.9,56.04,10.84,55.1,12,55.1z"/>
	<path class="st4" d="M12,65.1h74.2c1.16,0,2.1,0.94,2.1,2.1v4.62c0,1.16-0.94,2.1-2.1,2.1H12c-1.16,0-2.1-0.94-2.1-2.1V67.2
		C9.9,66.04,10.84,65.1,12,65.1z"/>
	<path class="st5" d="M12,75.1h74.2c1.16,0,2.1,0.94,2.1,2.1v4.62c0,1.16-0.94,2.1-2.1,2.1H12c-1.16,0-2.1-0.94-2.1-2.1V77.2
		C9.9,76.04,10.84,75.1,12,75.1z"/>
	<path class="st3" d="M12,85.1h74.2c1.16,0,2.1,0.94,2.1,2.1v4.62c0,1.16-0.94,2.1-2.1,2.1H12c-1.16,0-2.1-0.94-2.1-2.1V87.2
		C9.9,86.04,10.84,85.1,12,85.1z"/>
	<path class="st4" d="M12,95.1h74.2c1.16,0,2.1,0.94,2.1,2.1v4.62c0,1.16-0.94,2.1-2.1,2.1H12c-1.16,0-2.1-0.94-2.1-2.1V97.2
		C9.9,96.04,10.84,95.1,12,95.1z"/>
	<path class="st3" d="M13,3.4h20.1c1.16,0,2.1,0.94,2.1,2.1v9.1c0,1.16-0.94,2.1-2.1,2.1H13c-1.16,0-2.1-0.94-2.1-2.1V5.5
		C10.9,4.34,11.84,3.4,13,3.4z"/>
	<path class="st4" d="M39,3.4h20.1c1.16,0,2.1,0.94,2.1,2.1v9.1c0,1.16-0.94,2.1-2.1,2.1H39c-1.16,0-2.1-0.94-2.1-2.1V5.5
		C36.9,4.34,37.84,3.4,39,3.4z"/>
	<path class="st5" d="M65,3.4h20.1c1.16,0,2.1,0.94,2.1,2.1v9.1c0,1.16-0.94,2.1-2.1,2.1H65c-1.16,0-2.1-0.94-2.1-2.1V5.5
		C62.9,4.34,63.84,3.4,65,3.4z"/>
	<circle class="st9" cx="29" cy="9.7" r="2.8"/>
	<circle class="st9" cx="55" cy="9.7" r="2.8"/>
	<circle class="st9" cx="81" cy="9.7" r="2.8"/>
	<polygon class="st9" points="71,29 71,46.6 76.1,41.5 82.6,41.5 	"/>
	<line class="st10" x1="6.6" y1="20.7" x2="92.4" y2="20.7"/>
</g>
<g id="Step_2">
	<g>
		<defs>
			<path id="SVGID_00000055666863612055844010000008483490339259000193_" d="M418.2,39.8h77.1c3.53,0,6.4,2.87,6.4,6.4v103.98
				c0,3.53-2.87,6.4-6.4,6.4h-77.1c-3.53,0-6.4-2.87-6.4-6.4V46.2C411.8,42.67,414.67,39.8,418.2,39.8z"/>
		</defs>
		<clipPath id="SVGID_00000077287800790895727280000013617773601536933036_">
			<use xlink:href="#SVGID_00000055666863612055844010000008483490339259000193_"  style="overflow:visible;"/>
		</clipPath>
		<g style="clip-path:url(#SVGID_00000077287800790895727280000013617773601536933036_);">
			<path class="st3" d="M393.6,40.8H520c1.16,0,2.1,0.94,2.1,2.1v12.27c0,1.16-0.94,2.1-2.1,2.1H393.6c-1.16,0-2.1-0.94-2.1-2.1
				V42.9C391.5,41.74,392.44,40.8,393.6,40.8z"/>
			<path class="st4" d="M393.6,56.6H520c1.16,0,2.1,0.94,2.1,2.1v12.27c0,1.16-0.94,2.1-2.1,2.1H393.6c-1.16,0-2.1-0.94-2.1-2.1
				V58.7C391.5,57.54,392.44,56.6,393.6,56.6z"/>
			<path class="st5" d="M393.6,72.4H520c1.16,0,2.1,0.94,2.1,2.1v12.27c0,1.16-0.94,2.1-2.1,2.1H393.6c-1.16,0-2.1-0.94-2.1-2.1
				V74.5C391.5,73.34,392.44,72.4,393.6,72.4z"/>
			<path class="st3" d="M393.6,90.3H520c1.16,0,2.1,0.94,2.1,2.1v12.27c0,1.16-0.94,2.1-2.1,2.1H393.6c-1.16,0-2.1-0.94-2.1-2.1
				V92.4C391.5,91.24,392.44,90.3,393.6,90.3z"/>
			<path class="st4" d="M393.6,107.1H520c1.16,0,2.1,0.94,2.1,2.1v12.27c0,1.16-0.94,2.1-2.1,2.1H393.6c-1.16,0-2.1-0.94-2.1-2.1
				V109.2C391.5,108.04,392.44,107.1,393.6,107.1z"/>
			<path class="st5" d="M393.6,123.9H520c1.16,0,2.1,0.94,2.1,2.1v12.27c0,1.16-0.94,2.1-2.1,2.1H393.6c-1.16,0-2.1-0.94-2.1-2.1
				V126C391.5,124.84,392.44,123.9,393.6,123.9z"/>
			<path class="st3" d="M393.6,140.7H520c1.16,0,2.1,0.94,2.1,2.1v12.27c0,1.16-0.94,2.1-2.1,2.1H393.6c-1.16,0-2.1-0.94-2.1-2.1
				V142.8C391.5,141.64,392.44,140.7,393.6,140.7z"/>
			<path class="st4" d="M393.6,157.5H520c1.16,0,2.1,0.94,2.1,2.1v12.27c0,1.16-0.94,2.1-2.1,2.1H393.6c-1.16,0-2.1-0.94-2.1-2.1
				V159.6C391.5,158.44,392.44,157.5,393.6,157.5z"/>
		</g>
	</g>
	<path class="st12" d="M418.2,39.8h77.1c3.53,0,6.4,2.87,6.4,6.4v103.98c0,3.53-2.87,6.4-6.4,6.4h-77.1c-3.53,0-6.4-2.87-6.4-6.4
		V46.2C411.8,42.67,414.67,39.8,418.2,39.8z"/>
	<g>
		<defs>
			<path id="SVGID_00000103224819825032361660000015327245867657992852_" d="M353.9,17.6h96c3.53,0,6.4,2.87,6.4,6.4v122.33
				c0,3.53-2.87,6.4-6.4,6.4h-96c-3.53,0-6.4-2.87-6.4-6.4V24C347.5,20.47,350.37,17.6,353.9,17.6z"/>
		</defs>
		<clipPath id="SVGID_00000003796218774083849720000016075624585478435762_">
			<use xlink:href="#SVGID_00000103224819825032361660000015327245867657992852_"  style="overflow:visible;"/>
		</clipPath>
		<g style="clip-path:url(#SVGID_00000003796218774083849720000016075624585478435762_);">
			<path class="st3" d="M325,17.6h153.8c1.16,0,2.1,0.94,2.1,2.1v15.6c0,1.16-0.94,2.1-2.1,2.1H325c-1.16,0-2.1-0.94-2.1-2.1V19.7
				C322.9,18.54,323.84,17.6,325,17.6z"/>
			<path class="st4" d="M325,36.7h153.8c1.16,0,2.1,0.94,2.1,2.1v15.6c0,1.16-0.94,2.1-2.1,2.1H325c-1.16,0-2.1-0.94-2.1-2.1V38.8
				C322.9,37.64,323.84,36.7,325,36.7z"/>
			<path class="st5" d="M325,55.9h153.8c1.16,0,2.1,0.94,2.1,2.1v15.6c0,1.16-0.94,2.1-2.1,2.1H325c-1.16,0-2.1-0.94-2.1-2.1V58
				C322.9,56.84,323.84,55.9,325,55.9z"/>
			<path class="st3" d="M325,75.1h153.8c1.16,0,2.1,0.94,2.1,2.1v15.6c0,1.16-0.94,2.1-2.1,2.1H325c-1.16,0-2.1-0.94-2.1-2.1V77.2
				C322.9,76.04,323.84,75.1,325,75.1z"/>
			<path class="st4" d="M325,94.3h153.8c1.16,0,2.1,0.94,2.1,2.1V112c0,1.16-0.94,2.1-2.1,2.1H325c-1.16,0-2.1-0.94-2.1-2.1V96.4
				C322.9,95.24,323.84,94.3,325,94.3z"/>
			<path class="st5" d="M325,113.4h153.8c1.16,0,2.1,0.94,2.1,2.1v15.6c0,1.16-0.94,2.1-2.1,2.1H325c-1.16,0-2.1-0.94-2.1-2.1v-15.6
				C322.9,114.34,323.84,113.4,325,113.4z"/>
			<path class="st3" d="M325,132.6h153.8c1.16,0,2.1,0.94,2.1,2.1v15.6c0,1.16-0.94,2.1-2.1,2.1H325c-1.16,0-2.1-0.94-2.1-2.1v-15.6
				C322.9,133.54,323.84,132.6,325,132.6z"/>
			<path class="st4" d="M325,153.8h153.8c1.16,0,2.1,0.94,2.1,2.1v14.86c0,1.16-0.94,2.1-2.1,2.1H325c-1.16,0-2.1-0.94-2.1-2.1
				V155.9C322.9,154.74,323.84,153.8,325,153.8z"/>
		</g>
	</g>
	<path class="st12" d="M353.9,17.6h96c3.53,0,6.4,2.87,6.4,6.4v122.33c0,3.53-2.87,6.4-6.4,6.4h-96c-3.53,0-6.4-2.87-6.4-6.4V24
		C347.5,20.47,350.37,17.6,353.9,17.6z"/>
	<line class="st1" x1="363.7" y1="30.6" x2="447.3" y2="30.6"/>
	<line class="st1" x1="363.7" y1="37.9" x2="447.3" y2="37.9"/>
	<line class="st1" x1="363.7" y1="46.5" x2="432.9" y2="46.5"/>
	<line class="st1" x1="363.7" y1="54.8" x2="432.9" y2="54.8"/>
	<line class="st1" x1="363.1" y1="63.5" x2="447.9" y2="63.5"/>
	<line class="st1" x1="363.1" y1="70.9" x2="447.9" y2="70.9"/>
	<g>
		<defs>
			<path id="SVGID_00000044880589983639876520000009992978442462111368_" d="M412.1,82.7h96c3.53,0,6.4,2.87,6.4,6.4v83.76
				c0,3.53-2.87,6.4-6.4,6.4h-96c-3.53,0-6.4-2.87-6.4-6.4V89.1C405.7,85.57,408.57,82.7,412.1,82.7z"/>
		</defs>
		<clipPath id="SVGID_00000129909292719184816580000010515293377485051325_">
			<use xlink:href="#SVGID_00000044880589983639876520000009992978442462111368_"  style="overflow:visible;"/>
		</clipPath>
		<g style="clip-path:url(#SVGID_00000129909292719184816580000010515293377485051325_);">
			<path class="st3" d="M383.2,10.1H537c1.16,0,2.1,0.94,2.1,2.1v19.66c0,1.16-0.94,2.1-2.1,2.1H383.2c-1.16,0-2.1-0.94-2.1-2.1
				V12.2C381.1,11.04,382.04,10.1,383.2,10.1z"/>
			<path class="st4" d="M383.2,34.4H537c1.16,0,2.1,0.94,2.1,2.1v19.66c0,1.16-0.94,2.1-2.1,2.1H383.2c-1.16,0-2.1-0.94-2.1-2.1
				V36.5C381.1,35.34,382.04,34.4,383.2,34.4z"/>
			<path class="st5" d="M383.2,58.8H537c1.16,0,2.1,0.94,2.1,2.1v19.66c0,1.16-0.94,2.1-2.1,2.1H383.2c-1.16,0-2.1-0.94-2.1-2.1
				V60.9C381.1,59.74,382.04,58.8,383.2,58.8z"/>
			<path class="st3" d="M383.2,83.2H537c1.16,0,2.1,0.94,2.1,2.1v20.2c0,1.16-0.94,2.1-2.1,2.1H383.2c-1.16,0-2.1-0.94-2.1-2.1V85.3
				C381.1,84.14,382.04,83.2,383.2,83.2z"/>
			<path class="st4" d="M383.2,107H537c1.16,0,2.1,0.94,2.1,2.1v20.2c0,1.16-0.94,2.1-2.1,2.1H383.2c-1.16,0-2.1-0.94-2.1-2.1v-20.2
				C381.1,107.94,382.04,107,383.2,107z"/>
			<path class="st5" d="M383.2,130.9H537c1.16,0,2.1,0.94,2.1,2.1v20.2c0,1.16-0.94,2.1-2.1,2.1H383.2c-1.16,0-2.1-0.94-2.1-2.1V133
				C381.1,131.84,382.04,130.9,383.2,130.9z"/>
			<path class="st3" d="M383.2,154.8H537c1.16,0,2.1,0.94,2.1,2.1v20.2c0,1.16-0.94,2.1-2.1,2.1H383.2c-1.16,0-2.1-0.94-2.1-2.1
				v-20.2C381.1,155.74,382.04,154.8,383.2,154.8z"/>
			<path class="st4" d="M383.2,180.6H537c1.16,0,2.1,0.94,2.1,2.1v19.66c0,1.16-0.94,2.1-2.1,2.1H383.2c-1.16,0-2.1-0.94-2.1-2.1
				V182.7C381.1,181.54,382.04,180.6,383.2,180.6z"/>
		</g>
	</g>
	<path class="st15" d="M412.1,82.7h96c3.53,0,6.4,2.87,6.4,6.4v83.76c0,3.53-2.87,6.4-6.4,6.4h-96c-3.53,0-6.4-2.87-6.4-6.4V89.1
		C405.7,85.57,408.57,82.7,412.1,82.7z"/>
	<line class="st1" x1="421.2" y1="95" x2="504.9" y2="95"/>
	<line class="st1" x1="421.2" y1="105.2" x2="504.9" y2="105.2"/>
	<line class="st1" x1="421.2" y1="115.4" x2="490.5" y2="115.4"/>
	<line class="st1" x1="421.2" y1="125.6" x2="490.5" y2="125.6"/>
	<line class="st1" x1="420.6" y1="135.7" x2="505.5" y2="135.7"/>
	<line class="st1" x1="420.6" y1="145.9" x2="505.5" y2="145.9"/>
	<line class="st1" x1="420.6" y1="156.1" x2="505.5" y2="156.1"/>
	<line class="st1" x1="420.6" y1="166.3" x2="505.5" y2="166.3"/>
</g>
<g id="Step_3">
	<path class="st6" d="M680.8,31h96c3.53,0,6.4,2.87,6.4,6.4v122.33c0,3.53-2.87,6.4-6.4,6.4h-96c-3.53,0-6.4-2.87-6.4-6.4V37.4
		C674.4,33.87,677.27,31,680.8,31z"/>
	<line class="st1" x1="729.1" y1="52.2" x2="773.8" y2="52.2"/>
	<line class="st1" x1="729.1" y1="59.5" x2="773.8" y2="59.5"/>
	<line class="st1" x1="729.1" y1="68.1" x2="766.2" y2="68.1"/>
	<line class="st1" x1="729.1" y1="76.4" x2="766.2" y2="76.4"/>
	<line class="st1" x1="728.8" y1="85.1" x2="774.2" y2="85.1"/>
	<line class="st1" x1="728.8" y1="92.5" x2="774.2" y2="92.5"/>
	<rect x="682.5" y="50" class="st3" width="35.3" height="11.01"/>
	<rect x="682.5" y="67" class="st4" width="35.3" height="11.01"/>
	<rect x="682.5" y="84" class="st5" width="35.3" height="11.01"/>
	<rect x="684.3" y="104.8" class="st1" width="88.5" height="51.7"/>
	<line class="st16" x1="682.3" y1="41.3" x2="775.4" y2="41.3"/>
	<polyline class="st1" points="684.3,156.5 704.5,127 719.4,141.9 726.5,134.8 742.8,151.1 772.4,121.5 	"/>
	<path class="st0" d="M775.5,123.9h-3.7l-2.9-6.2c-1.62,0.23-3.22,0.56-4.8,1c-1.59,0.48-3.13,1.12-4.6,1.9l1.4,6.6l-2.8,2.3
		l-6.2-3.3l-5.9,8.2l5,4.4l-1,3.6l-6.9,0.6c-0.2,1.3-0.3,2.8-0.4,4.5c-0.03,1.94,0.1,3.88,0.4,5.8l6.7,0.5l1.2,3.6l-5.1,4.5
		c0.8,1.61,1.74,3.15,2.8,4.6c0.94,1.33,2.02,2.57,3.2,3.7l5.9-3.5l3,2.3l-1.5,6.5c1.43,0.72,2.9,1.36,4.4,1.9
		c1.72,0.58,3.5,0.99,5.3,1.2l2.7-6.1h3.8l2.6,6.1c1.69-0.25,3.36-0.62,5-1.1c1.6-0.55,3.17-1.18,4.7-1.9c-0.5-2.2-1-4.4-1.4-6.6
		l3-2.2l5.8,3.4c1.1-1.2,2.3-2.6,3.5-4.2c0.95-1.28,1.82-2.61,2.6-4l-5.2-4.6l1.2-3.5l6.8-0.6c0.25-1.59,0.38-3.19,0.4-4.8
		c0.01-1.8-0.09-3.61-0.3-5.4l-6.8-0.6l-1.2-3.6l5.1-4.5c-0.64-1.28-1.38-2.52-2.2-3.7c-1.15-1.63-2.42-3.17-3.8-4.6l-5.8,3.5
		l-3.1-2.2l1.5-6.6c-1.51-0.8-3.08-1.47-4.7-2c-1.66-0.55-3.37-0.95-5.1-1.2L775.5,123.9z"/>
	
		<ellipse transform="matrix(0.1602 -0.9871 0.9871 0.1602 503.4953 887.9879)" class="st17" cx="773.6" cy="148.1" rx="24.2" ry="24.2"/>
	<g>
		<defs>
			<circle id="SVGID_00000047738190862592505870000001410759200543194285_" cx="773.7" cy="148.6" r="21.6"/>
		</defs>
		<clipPath id="SVGID_00000126298350670300279410000007560131542504692142_">
			<use xlink:href="#SVGID_00000047738190862592505870000001410759200543194285_"  style="overflow:visible;"/>
		</clipPath>
		<g style="clip-path:url(#SVGID_00000126298350670300279410000007560131542504692142_);">
			<path class="st3" d="M705.3,75.5H842c1.16,0,2.1,0.94,2.1,2.1v12.8c0,1.16-0.94,2.1-2.1,2.1H705.3c-1.16,0-2.1-0.94-2.1-2.1V77.6
				C703.2,76.44,704.14,75.5,705.3,75.5z"/>
			<path class="st4" d="M705.3,92.8H842c1.16,0,2.1,0.94,2.1,2.1v12.8c0,1.16-0.94,2.1-2.1,2.1H705.3c-1.16,0-2.1-0.94-2.1-2.1V94.9
				C703.2,93.74,704.14,92.8,705.3,92.8z"/>
			<path class="st5" d="M705.3,110.2H842c1.16,0,2.1,0.94,2.1,2.1v12.8c0,1.16-0.94,2.1-2.1,2.1H705.3c-1.16,0-2.1-0.94-2.1-2.1
				v-12.8C703.2,111.14,704.14,110.2,705.3,110.2z"/>
			<path class="st3" d="M705.3,122.3H842c1.16,0,2.1,0.94,2.1,2.1v16.05c0,1.16-0.94,2.1-2.1,2.1H705.3c-1.16,0-2.1-0.94-2.1-2.1
				V124.4C703.2,123.24,704.14,122.3,705.3,122.3z"/>
			<path class="st4" d="M705.3,141.9H842c1.16,0,2.1,0.94,2.1,2.1v14.03c0,1.16-0.94,2.1-2.1,2.1H705.3c-1.16,0-2.1-0.94-2.1-2.1
				V144C703.2,142.84,704.14,141.9,705.3,141.9z"/>
			<path class="st5" d="M705.3,159.3H842c1.16,0,2.1,0.94,2.1,2.1v12.8c0,1.16-0.94,2.1-2.1,2.1H705.3c-1.16,0-2.1-0.94-2.1-2.1
				v-12.8C703.2,160.24,704.14,159.3,705.3,159.3z"/>
			<path class="st3" d="M705.3,179.6H842c1.16,0,2.1,0.94,2.1,2.1v12.8c0,1.16-0.94,2.1-2.1,2.1H705.3c-1.16,0-2.1-0.94-2.1-2.1
				v-12.8C703.2,180.54,704.14,179.6,705.3,179.6z"/>
			<path class="st4" d="M705.3,197H842c1.16,0,2.1,0.94,2.1,2.1v12.8c0,1.16-0.94,2.1-2.1,2.1H705.3c-1.16,0-2.1-0.94-2.1-2.1v-12.8
				C703.2,197.94,704.14,197,705.3,197z"/>
		</g>
	</g>
	<line class="st16" x1="118.1" y1="208.3" x2="724.7" y2="208.3"/>
	<circle class="st19" cx="121.9" cy="208.3" r="14.4"/>
	<circle class="st19" cx="431.4" cy="208.3" r="14.4"/>
	<circle class="st19" cx="739.4" cy="208.3" r="14.4"/>
	<text transform="matrix(1 0 0 1 116.3999 214.8)" class="st0 st20 st21">1</text>
	<text transform="matrix(1 0 0 1 426.2 214.8)" class="st0 st20 st21">2</text>
	<text transform="matrix(1 0 0 1 734.5999 214.8)" class="st0 st20 st21">3</text>
</g>
</svg>
