<?xml version="1.0" encoding="utf-8"?>
<!-- Generator: Adobe Illustrator 25.4.1, SVG Export Plug-In . SVG Version: 6.00 Build 0)  -->
<svg version="1.1" id="Layer_1" xmlns="http://www.w3.org/2000/svg" xmlns:xlink="http://www.w3.org/1999/xlink" x="0px" y="0px"
	 viewBox="0 0 805 365" style="enable-background:new 0 0 805 365;" xml:space="preserve">
<style type="text/css">
	.st0{fill:#0B56A6;}
	.st1{fill:none;stroke:#0B56A6;stroke-width:2;stroke-miterlimit:10;}
	.st2{clip-path:url(#SVGID_00000033340869293065548370000006555692595827987883_);}
	.st3{fill:#CFE2F3;}
	.st4{fill:#F4CCCC;}
	.st5{fill:#D9EAD3;}
	.st6{fill:#FFFFFF;stroke:#0B56A6;stroke-width:2;stroke-miterlimit:10;}
	.st7{fill:#0B56A6;stroke:#0E57A5;stroke-miterlimit:10;}
	.st8{fill:#CFE2F3;stroke:#0B56A6;stroke-width:0.5;stroke-miterlimit:10;}
	.st9{fill:#FFFFFF;stroke:#0B56A6;stroke-miterlimit:10;}
	.st10{fill:none;stroke:#FFFFFF;stroke-miterlimit:10;}
	.st11{font-family:'OpenSans-Semibold';}
	.st12{font-size:18px;}
	.st13{clip-path:url(#SVGID_00000138536165863986881020000009106440083781744573_);}
	.st14{fill:none;stroke:#0F58A5;stroke-width:2;stroke-miterlimit:10;}
	.st15{clip-path:url(#SVGID_00000096025897247369348770000005808193549294165179_);}
	.st16{clip-path:url(#SVGID_00000003088159400808910840000010506793832778074009_);}
	.st17{fill:none;stroke:#0F59A5;stroke-width:2;stroke-miterlimit:10;}
	.st18{fill:none;stroke:#0B56A6;stroke-width:3;stroke-miterlimit:10;}
	.st19{fill:#FFFFFF;stroke:#0B56A6;stroke-width:7;stroke-miterlimit:10;}
	.st20{clip-path:url(#SVGID_00000147942879797133184410000006841912351007513217_);}
	.st21{fill:#FFFFFF;stroke:#0B56A6;stroke-width:3;stroke-miterlimit:10;}
	.st22{font-family:'Arial-BoldMT';}
</style>
<g id="Step_1">
	<polygon class="st0" points="44,140.5 130,107 202.2,133.7 115.1,178.1 	"/>
	<polygon class="st1" points="2.7,119.2 129,79.3 241.8,113 116.1,178.8 44.9,141.4 	"/>
	<polyline class="st1" points="44.9,141.4 81.5,126.1 40.8,107.3 	"/>
	<polyline class="st1" points="81.5,126.1 131,107.5 202.2,133.7 	"/>
	<line class="st1" x1="173" y1="122.7" x2="212.2" y2="104.1"/>
	<line class="st1" x1="129.6" y1="107.6" x2="171.2" y2="91.8"/>
	<g>
		<defs>
			<path id="SVGID_1_" d="M102.8,115.6c-10.4-15.8,0.7-37,19.5-37h1.8c17.4,0.9,27.3,20.4,17.9,35.2L122.2,145L102.8,115.6z"/>
		</defs>
		<clipPath id="SVGID_00000159455429851237832180000004587890587812626560_">
			<use xlink:href="#SVGID_1_"  style="overflow:visible;"/>
		</clipPath>
		<g style="clip-path:url(#SVGID_00000159455429851237832180000004587890587812626560_);">
			<rect x="86" y="77.9" class="st3" width="73.4" height="22.46"/>
			<rect x="86" y="100.3" class="st4" width="73.4" height="22.46"/>
			<rect x="86" y="122.6" class="st5" width="73.4" height="22.46"/>
		</g>
	</g>
	<path class="st1" d="M102.8,115.6c-10.4-15.8,0.7-37,19.5-37h1.8c17.4,0.9,27.3,20.4,17.9,35.2L122.2,145L102.8,115.6z"/>
	<circle class="st6" cx="122.2" cy="100.7" r="12.7"/>
	<path class="st7" d="M11.2,0.8h76.2c1.88,0,3.4,1.52,3.4,3.4v99.87c0,1.88-1.52,3.4-3.4,3.4H11.2c-1.88,0-3.4-1.52-3.4-3.4V4.2
		C7.8,2.32,9.32,0.8,11.2,0.8z"/>
	<path class="st8" d="M12.3,25.3h74.2c1.16,0,2.1,0.94,2.1,2.1v4.62c0,1.16-0.94,2.1-2.1,2.1H12.3c-1.16,0-2.1-0.94-2.1-2.1V27.4
		C10.2,26.24,11.14,25.3,12.3,25.3z"/>
	<path class="st4" d="M12.3,35.3h74.2c1.16,0,2.1,0.94,2.1,2.1v4.62c0,1.16-0.94,2.1-2.1,2.1H12.3c-1.16,0-2.1-0.94-2.1-2.1V37.4
		C10.2,36.24,11.14,35.3,12.3,35.3z"/>
	<path class="st5" d="M12.3,45.3h74.2c1.16,0,2.1,0.94,2.1,2.1v4.62c0,1.16-0.94,2.1-2.1,2.1H12.3c-1.16,0-2.1-0.94-2.1-2.1V47.4
		C10.2,46.24,11.14,45.3,12.3,45.3z"/>
	<path class="st3" d="M12.3,55.3h74.2c1.16,0,2.1,0.94,2.1,2.1v4.62c0,1.16-0.94,2.1-2.1,2.1H12.3c-1.16,0-2.1-0.94-2.1-2.1V57.4
		C10.2,56.24,11.14,55.3,12.3,55.3z"/>
	<path class="st4" d="M12.3,65.3h74.2c1.16,0,2.1,0.94,2.1,2.1v4.62c0,1.16-0.94,2.1-2.1,2.1H12.3c-1.16,0-2.1-0.94-2.1-2.1V67.4
		C10.2,66.24,11.14,65.3,12.3,65.3z"/>
	<path class="st5" d="M12.3,75.3h74.2c1.16,0,2.1,0.94,2.1,2.1v4.62c0,1.16-0.94,2.1-2.1,2.1H12.3c-1.16,0-2.1-0.94-2.1-2.1V77.4
		C10.2,76.24,11.14,75.3,12.3,75.3z"/>
	<path class="st3" d="M12.3,85.3h74.2c1.16,0,2.1,0.94,2.1,2.1v4.62c0,1.16-0.94,2.1-2.1,2.1H12.3c-1.16,0-2.1-0.94-2.1-2.1V87.4
		C10.2,86.24,11.14,85.3,12.3,85.3z"/>
	<path class="st4" d="M12.3,95.3h74.2c1.16,0,2.1,0.94,2.1,2.1v4.62c0,1.16-0.94,2.1-2.1,2.1H12.3c-1.16,0-2.1-0.94-2.1-2.1V97.4
		C10.2,96.24,11.14,95.3,12.3,95.3z"/>
	<path class="st3" d="M13.3,3.6h20.1c1.16,0,2.1,0.94,2.1,2.1v9.1c0,1.16-0.94,2.1-2.1,2.1H13.3c-1.16,0-2.1-0.94-2.1-2.1V5.7
		C11.2,4.54,12.14,3.6,13.3,3.6z"/>
	<path class="st4" d="M39.3,3.6h20.1c1.16,0,2.1,0.94,2.1,2.1v9.1c0,1.16-0.94,2.1-2.1,2.1H39.3c-1.16,0-2.1-0.94-2.1-2.1V5.7
		C37.2,4.54,38.14,3.6,39.3,3.6z"/>
	<path class="st5" d="M65.3,3.6h20.1c1.16,0,2.1,0.94,2.1,2.1v9.1c0,1.16-0.94,2.1-2.1,2.1H65.3c-1.16,0-2.1-0.94-2.1-2.1V5.7
		C63.2,4.54,64.14,3.6,65.3,3.6z"/>
	<circle class="st9" cx="29.3" cy="9.9" r="2.8"/>
	<circle class="st9" cx="55.3" cy="9.9" r="2.8"/>
	<circle class="st9" cx="81.3" cy="9.9" r="2.8"/>
	<polygon class="st9" points="71.3,29.2 71.3,46.8 76.4,41.7 82.9,41.7 	"/>
	<line class="st10" x1="6.9" y1="20.9" x2="92.7" y2="20.9"/>
	<text transform="matrix(1 0 0 1 39.3 251.8)" class="st0 st11 st12">Choose your site </text>
	<text transform="matrix(1 0 0 1 39.3 273.4)" class="st0 st11 st12">and topics of </text>
	<text transform="matrix(1 0 0 1 39.3 295)" class="st0 st11 st12">interests (query </text>
	<text transform="matrix(1 0 0 1 39.3 316.6)" class="st0 st11 st12">location and </text>
	<text transform="matrix(1 0 0 1 39.3 338.2)" class="st0 st11 st12">stressor-receptor </text>
	<text transform="matrix(1 0 0 1 39.3 359.8)" class="st0 st11 st12">interactions)</text>
</g>
<g id="Step_2">
	<g>
		<defs>
			<path id="SVGID_00000182493746760702044080000014631907397122699418_" d="M418.5,40h77.1c3.53,0,6.4,2.87,6.4,6.4v103.98
				c0,3.53-2.87,6.4-6.4,6.4h-77.1c-3.53,0-6.4-2.87-6.4-6.4V46.4C412.1,42.87,414.97,40,418.5,40z"/>
		</defs>
		<clipPath id="SVGID_00000049916975787688982090000011201435978024240266_">
			<use xlink:href="#SVGID_00000182493746760702044080000014631907397122699418_"  style="overflow:visible;"/>
		</clipPath>
		<g style="clip-path:url(#SVGID_00000049916975787688982090000011201435978024240266_);">
			<path class="st3" d="M393.9,41h126.4c1.16,0,2.1,0.94,2.1,2.1v12.27c0,1.16-0.94,2.1-2.1,2.1H393.9c-1.16,0-2.1-0.94-2.1-2.1
				V43.1C391.8,41.94,392.74,41,393.9,41z"/>
			<path class="st4" d="M393.9,56.8h126.4c1.16,0,2.1,0.94,2.1,2.1v12.27c0,1.16-0.94,2.1-2.1,2.1H393.9c-1.16,0-2.1-0.94-2.1-2.1
				V58.9C391.8,57.74,392.74,56.8,393.9,56.8z"/>
			<path class="st5" d="M393.9,72.6h126.4c1.16,0,2.1,0.94,2.1,2.1v12.27c0,1.16-0.94,2.1-2.1,2.1H393.9c-1.16,0-2.1-0.94-2.1-2.1
				V74.7C391.8,73.54,392.74,72.6,393.9,72.6z"/>
			<path class="st3" d="M393.9,90.5h126.4c1.16,0,2.1,0.94,2.1,2.1v12.27c0,1.16-0.94,2.1-2.1,2.1H393.9c-1.16,0-2.1-0.94-2.1-2.1
				V92.6C391.8,91.44,392.74,90.5,393.9,90.5z"/>
			<path class="st4" d="M393.9,107.3h126.4c1.16,0,2.1,0.94,2.1,2.1v12.27c0,1.16-0.94,2.1-2.1,2.1H393.9c-1.16,0-2.1-0.94-2.1-2.1
				V109.4C391.8,108.24,392.74,107.3,393.9,107.3z"/>
			<path class="st5" d="M393.9,124.1h126.4c1.16,0,2.1,0.94,2.1,2.1v12.27c0,1.16-0.94,2.1-2.1,2.1H393.9c-1.16,0-2.1-0.94-2.1-2.1
				V126.2C391.8,125.04,392.74,124.1,393.9,124.1z"/>
			<path class="st3" d="M393.9,140.9h126.4c1.16,0,2.1,0.94,2.1,2.1v12.27c0,1.16-0.94,2.1-2.1,2.1H393.9c-1.16,0-2.1-0.94-2.1-2.1
				V143C391.8,141.84,392.74,140.9,393.9,140.9z"/>
			<path class="st4" d="M393.9,157.7h126.4c1.16,0,2.1,0.94,2.1,2.1v12.27c0,1.16-0.94,2.1-2.1,2.1H393.9c-1.16,0-2.1-0.94-2.1-2.1
				V159.8C391.8,158.64,392.74,157.7,393.9,157.7z"/>
		</g>
	</g>
	<path class="st14" d="M418.5,40h77.1c3.53,0,6.4,2.87,6.4,6.4v103.98c0,3.53-2.87,6.4-6.4,6.4h-77.1c-3.53,0-6.4-2.87-6.4-6.4V46.4
		C412.1,42.87,414.97,40,418.5,40z"/>
	<g>
		<defs>
			<path id="SVGID_00000021798894095584688950000009407198580304769436_" d="M354.2,17.8h96c3.53,0,6.4,2.87,6.4,6.4v122.33
				c0,3.53-2.87,6.4-6.4,6.4h-96c-3.53,0-6.4-2.87-6.4-6.4V24.2C347.8,20.67,350.67,17.8,354.2,17.8z"/>
		</defs>
		<clipPath id="SVGID_00000022526886317343757900000000309416134923185295_">
			<use xlink:href="#SVGID_00000021798894095584688950000009407198580304769436_"  style="overflow:visible;"/>
		</clipPath>
		<g style="clip-path:url(#SVGID_00000022526886317343757900000000309416134923185295_);">
			<path class="st3" d="M325.3,17.8h153.8c1.16,0,2.1,0.94,2.1,2.1v15.6c0,1.16-0.94,2.1-2.1,2.1H325.3c-1.16,0-2.1-0.94-2.1-2.1
				V19.9C323.2,18.74,324.14,17.8,325.3,17.8z"/>
			<path class="st4" d="M325.3,36.9h153.8c1.16,0,2.1,0.94,2.1,2.1v15.6c0,1.16-0.94,2.1-2.1,2.1H325.3c-1.16,0-2.1-0.94-2.1-2.1V39
				C323.2,37.84,324.14,36.9,325.3,36.9z"/>
			<path class="st5" d="M325.3,56.1h153.8c1.16,0,2.1,0.94,2.1,2.1v15.6c0,1.16-0.94,2.1-2.1,2.1H325.3c-1.16,0-2.1-0.94-2.1-2.1
				V58.2C323.2,57.04,324.14,56.1,325.3,56.1z"/>
			<path class="st3" d="M325.3,75.3h153.8c1.16,0,2.1,0.94,2.1,2.1V93c0,1.16-0.94,2.1-2.1,2.1H325.3c-1.16,0-2.1-0.94-2.1-2.1V77.4
				C323.2,76.24,324.14,75.3,325.3,75.3z"/>
			<path class="st4" d="M325.3,94.5h153.8c1.16,0,2.1,0.94,2.1,2.1v15.6c0,1.16-0.94,2.1-2.1,2.1H325.3c-1.16,0-2.1-0.94-2.1-2.1
				V96.6C323.2,95.44,324.14,94.5,325.3,94.5z"/>
			<path class="st5" d="M325.3,113.6h153.8c1.16,0,2.1,0.94,2.1,2.1v15.6c0,1.16-0.94,2.1-2.1,2.1H325.3c-1.16,0-2.1-0.94-2.1-2.1
				v-15.6C323.2,114.54,324.14,113.6,325.3,113.6z"/>
			<path class="st3" d="M325.3,132.8h153.8c1.16,0,2.1,0.94,2.1,2.1v15.6c0,1.16-0.94,2.1-2.1,2.1H325.3c-1.16,0-2.1-0.94-2.1-2.1
				v-15.6C323.2,133.74,324.14,132.8,325.3,132.8z"/>
			<path class="st4" d="M325.3,154h153.8c1.16,0,2.1,0.94,2.1,2.1v14.86c0,1.16-0.94,2.1-2.1,2.1H325.3c-1.16,0-2.1-0.94-2.1-2.1
				V156.1C323.2,154.94,324.14,154,325.3,154z"/>
		</g>
	</g>
	<path class="st14" d="M354.2,17.8h96c3.53,0,6.4,2.87,6.4,6.4v122.33c0,3.53-2.87,6.4-6.4,6.4h-96c-3.53,0-6.4-2.87-6.4-6.4V24.2
		C347.8,20.67,350.67,17.8,354.2,17.8z"/>
	<line class="st1" x1="364" y1="30.8" x2="447.6" y2="30.8"/>
	<line class="st1" x1="364" y1="38.1" x2="447.6" y2="38.1"/>
	<line class="st1" x1="364" y1="46.7" x2="433.2" y2="46.7"/>
	<line class="st1" x1="364" y1="55" x2="433.2" y2="55"/>
	<line class="st1" x1="363.4" y1="63.7" x2="448.2" y2="63.7"/>
	<line class="st1" x1="363.4" y1="71.1" x2="448.2" y2="71.1"/>
	<g>
		<defs>
			<path id="SVGID_00000139277582574666727470000006335581833100353162_" d="M412.4,82.9h96c3.53,0,6.4,2.87,6.4,6.4v83.76
				c0,3.53-2.87,6.4-6.4,6.4h-96c-3.53,0-6.4-2.87-6.4-6.4V89.3C406,85.77,408.87,82.9,412.4,82.9z"/>
		</defs>
		<clipPath id="SVGID_00000181797680469319158750000012761715224838689181_">
			<use xlink:href="#SVGID_00000139277582574666727470000006335581833100353162_"  style="overflow:visible;"/>
		</clipPath>
		<g style="clip-path:url(#SVGID_00000181797680469319158750000012761715224838689181_);">
			<path class="st3" d="M383.5,10.3h153.8c1.16,0,2.1,0.94,2.1,2.1v19.66c0,1.16-0.94,2.1-2.1,2.1H383.5c-1.16,0-2.1-0.94-2.1-2.1
				V12.4C381.4,11.24,382.34,10.3,383.5,10.3z"/>
			<path class="st4" d="M383.5,34.6h153.8c1.16,0,2.1,0.94,2.1,2.1v19.66c0,1.16-0.94,2.1-2.1,2.1H383.5c-1.16,0-2.1-0.94-2.1-2.1
				V36.7C381.4,35.54,382.34,34.6,383.5,34.6z"/>
			<path class="st5" d="M383.5,59h153.8c1.16,0,2.1,0.94,2.1,2.1v19.66c0,1.16-0.94,2.1-2.1,2.1H383.5c-1.16,0-2.1-0.94-2.1-2.1
				V61.1C381.4,59.94,382.34,59,383.5,59z"/>
			<path class="st3" d="M383.5,83.4h153.8c1.16,0,2.1,0.94,2.1,2.1v20.2c0,1.16-0.94,2.1-2.1,2.1H383.5c-1.16,0-2.1-0.94-2.1-2.1
				V85.5C381.4,84.34,382.34,83.4,383.5,83.4z"/>
			<path class="st4" d="M383.5,107.2h153.8c1.16,0,2.1,0.94,2.1,2.1v20.2c0,1.16-0.94,2.1-2.1,2.1H383.5c-1.16,0-2.1-0.94-2.1-2.1
				v-20.2C381.4,108.14,382.34,107.2,383.5,107.2z"/>
			<path class="st5" d="M383.5,131.1h153.8c1.16,0,2.1,0.94,2.1,2.1v20.2c0,1.16-0.94,2.1-2.1,2.1H383.5c-1.16,0-2.1-0.94-2.1-2.1
				v-20.2C381.4,132.04,382.34,131.1,383.5,131.1z"/>
			<path class="st3" d="M383.5,155h153.8c1.16,0,2.1,0.94,2.1,2.1v20.2c0,1.16-0.94,2.1-2.1,2.1H383.5c-1.16,0-2.1-0.94-2.1-2.1
				v-20.2C381.4,155.94,382.34,155,383.5,155z"/>
			<path class="st4" d="M383.5,180.8h153.8c1.16,0,2.1,0.94,2.1,2.1v19.66c0,1.16-0.94,2.1-2.1,2.1H383.5c-1.16,0-2.1-0.94-2.1-2.1
				V182.9C381.4,181.74,382.34,180.8,383.5,180.8z"/>
		</g>
	</g>
	<path class="st17" d="M412.4,82.9h96c3.53,0,6.4,2.87,6.4,6.4v83.76c0,3.53-2.87,6.4-6.4,6.4h-96c-3.53,0-6.4-2.87-6.4-6.4V89.3
		C406,85.77,408.87,82.9,412.4,82.9z"/>
	<line class="st1" x1="421.5" y1="95.2" x2="505.2" y2="95.2"/>
	<line class="st1" x1="421.5" y1="105.4" x2="505.2" y2="105.4"/>
	<line class="st1" x1="421.5" y1="115.6" x2="490.8" y2="115.6"/>
	<line class="st1" x1="421.5" y1="125.8" x2="490.8" y2="125.8"/>
	<line class="st1" x1="420.9" y1="135.9" x2="505.8" y2="135.9"/>
	<line class="st1" x1="420.9" y1="146.1" x2="505.8" y2="146.1"/>
	<line class="st1" x1="420.9" y1="156.3" x2="505.8" y2="156.3"/>
	<line class="st1" x1="420.9" y1="166.5" x2="505.8" y2="166.5"/>
	<text transform="matrix(1 0 0 1 351.5 251.8)" class="st0 st11 st12">View selected </text>
	<text transform="matrix(1 0 0 1 351.5 273.4)" class="st0 st11 st12">content based on </text>
	<text transform="matrix(1 0 0 1 351.5 295)" class="st0 st11 st12">site and topics of </text>
	<text transform="matrix(1 0 0 1 351.5 316.6)" class="st0 st11 st12">interest  </text>
</g>
<g id="Step_3">
	<path class="st6" d="M681.1,31.2h96c3.53,0,6.4,2.87,6.4,6.4v122.33c0,3.53-2.87,6.4-6.4,6.4h-96c-3.53,0-6.4-2.87-6.4-6.4V37.6
		C674.7,34.07,677.57,31.2,681.1,31.2z"/>
	<line class="st1" x1="729.4" y1="52.4" x2="774.1" y2="52.4"/>
	<line class="st1" x1="729.4" y1="59.7" x2="774.1" y2="59.7"/>
	<line class="st1" x1="729.4" y1="68.3" x2="766.5" y2="68.3"/>
	<line class="st1" x1="729.4" y1="76.6" x2="766.5" y2="76.6"/>
	<line class="st1" x1="729.1" y1="85.3" x2="774.5" y2="85.3"/>
	<line class="st1" x1="729.1" y1="92.7" x2="774.5" y2="92.7"/>
	<rect x="682.8" y="50.2" class="st3" width="35.3" height="11.01"/>
	<rect x="682.8" y="67.2" class="st4" width="35.3" height="11.01"/>
	<rect x="682.8" y="84.2" class="st5" width="35.3" height="11.01"/>
	<rect x="684.6" y="105" class="st1" width="88.5" height="51.7"/>
	<line class="st18" x1="682.6" y1="41.5" x2="775.7" y2="41.5"/>
	<polyline class="st1" points="684.6,156.7 704.8,127.2 719.7,142.1 726.8,135 743.1,151.3 772.7,121.7 	"/>
	<path class="st0" d="M775.8,124.1h-3.7l-2.9-6.2c-1.62,0.23-3.22,0.56-4.8,1c-1.59,0.48-3.13,1.12-4.6,1.9l1.4,6.6l-2.8,2.3
		l-6.2-3.3l-5.9,8.2l5,4.4l-1,3.6l-6.9,0.6c-0.2,1.3-0.3,2.8-0.4,4.5c-0.03,1.94,0.1,3.88,0.4,5.8l6.7,0.5l1.2,3.6l-5.1,4.5
		c0.8,1.61,1.74,3.15,2.8,4.6c0.94,1.33,2.02,2.57,3.2,3.7l5.9-3.5l3,2.3l-1.5,6.5c1.43,0.72,2.9,1.36,4.4,1.9
		c1.72,0.58,3.5,0.99,5.3,1.2l2.7-6.1h3.8l2.6,6.1c1.69-0.25,3.36-0.62,5-1.1c1.6-0.55,3.17-1.18,4.7-1.9c-0.5-2.2-1-4.4-1.4-6.6
		l3-2.2l5.8,3.4c1.1-1.2,2.3-2.6,3.5-4.2c0.95-1.28,1.82-2.61,2.6-4l-5.2-4.6l1.2-3.5l6.8-0.6c0.25-1.59,0.38-3.19,0.4-4.8
		c0.01-1.8-0.09-3.61-0.3-5.4l-6.8-0.6l-1.2-3.6l5.1-4.5c-0.64-1.28-1.38-2.52-2.2-3.7c-1.15-1.63-2.42-3.17-3.8-4.6l-5.8,3.5
		l-3.1-2.2l1.5-6.6c-1.51-0.8-3.08-1.47-4.7-2c-1.66-0.55-3.37-0.95-5.1-1.2L775.8,124.1z"/>
	
		<ellipse transform="matrix(0.1602 -0.9871 0.9871 0.1602 503.5498 888.4519)" class="st19" cx="773.9" cy="148.3" rx="24.2" ry="24.2"/>
	<g>
		<defs>
			<circle id="SVGID_00000093872866851782418990000016452338007170712739_" cx="774" cy="148.8" r="21.6"/>
		</defs>
		<clipPath id="SVGID_00000165944476838778081300000005711583272709508799_">
			<use xlink:href="#SVGID_00000093872866851782418990000016452338007170712739_"  style="overflow:visible;"/>
		</clipPath>
		<g style="clip-path:url(#SVGID_00000165944476838778081300000005711583272709508799_);">
			<path class="st3" d="M705.6,75.7h136.7c1.16,0,2.1,0.94,2.1,2.1v12.8c0,1.16-0.94,2.1-2.1,2.1H705.6c-1.16,0-2.1-0.94-2.1-2.1
				V77.8C703.5,76.64,704.44,75.7,705.6,75.7z"/>
			<path class="st4" d="M705.6,93h136.7c1.16,0,2.1,0.94,2.1,2.1v12.8c0,1.16-0.94,2.1-2.1,2.1H705.6c-1.16,0-2.1-0.94-2.1-2.1V95.1
				C703.5,93.94,704.44,93,705.6,93z"/>
			<path class="st5" d="M705.6,110.4h136.7c1.16,0,2.1,0.94,2.1,2.1v12.8c0,1.16-0.94,2.1-2.1,2.1H705.6c-1.16,0-2.1-0.94-2.1-2.1
				v-12.8C703.5,111.34,704.44,110.4,705.6,110.4z"/>
			<path class="st3" d="M705.6,122.5h136.7c1.16,0,2.1,0.94,2.1,2.1v16.05c0,1.16-0.94,2.1-2.1,2.1H705.6c-1.16,0-2.1-0.94-2.1-2.1
				V124.6C703.5,123.44,704.44,122.5,705.6,122.5z"/>
			<path class="st4" d="M705.6,142.1h136.7c1.16,0,2.1,0.94,2.1,2.1v14.03c0,1.16-0.94,2.1-2.1,2.1H705.6c-1.16,0-2.1-0.94-2.1-2.1
				V144.2C703.5,143.04,704.44,142.1,705.6,142.1z"/>
			<path class="st5" d="M705.6,159.5h136.7c1.16,0,2.1,0.94,2.1,2.1v12.8c0,1.16-0.94,2.1-2.1,2.1H705.6c-1.16,0-2.1-0.94-2.1-2.1
				v-12.8C703.5,160.44,704.44,159.5,705.6,159.5z"/>
			<path class="st3" d="M705.6,179.8h136.7c1.16,0,2.1,0.94,2.1,2.1v12.8c0,1.16-0.94,2.1-2.1,2.1H705.6c-1.16,0-2.1-0.94-2.1-2.1
				v-12.8C703.5,180.74,704.44,179.8,705.6,179.8z"/>
			<path class="st4" d="M705.6,197.2h136.7c1.16,0,2.1,0.94,2.1,2.1v12.8c0,1.16-0.94,2.1-2.1,2.1H705.6c-1.16,0-2.1-0.94-2.1-2.1
				v-12.8C703.5,198.14,704.44,197.2,705.6,197.2z"/>
		</g>
	</g>
	<text transform="matrix(1 0 0 1 675.3 251.8)" class="st0 st11 st12">Develop and </text>
	<text transform="matrix(1 0 0 1 675.3 273.4)" class="st0 st11 st12">share reports  </text>
	<line class="st18" x1="118.4" y1="208.5" x2="725" y2="208.5"/>
	<circle class="st21" cx="122.2" cy="208.5" r="14.4"/>
	<circle class="st21" cx="431.7" cy="208.5" r="14.4"/>
	<circle class="st21" cx="739.7" cy="208.5" r="14.4"/>
	<text transform="matrix(1 0 0 1 116.7 215)" class="st0 st22 st12">1</text>
	<text transform="matrix(1 0 0 1 426.5 215)" class="st0 st22 st12">2</text>
	<text transform="matrix(1 0 0 1 734.8999 215)" class="st0 st22 st12">3</text>
</g>
</svg>
